# Blender v2.78 (sub 0) OBJ File: '21.blend'
# www.blender.org
mtllib Timer_01.mtl
o Cube.025_Cube.024
v -3.159929 -2.517414 1.099353
v -3.159929 3.802443 1.099353
v -3.159929 -2.517414 -1.099353
v -3.159929 3.802443 -1.099353
v 3.159929 -2.517414 1.099353
v 3.159929 3.802443 1.099353
v 3.159929 -2.517414 -1.099353
v 3.159929 3.802443 -1.099353
v -3.320766 -2.678252 -0.385103
v -3.320766 -2.678252 0.385103
v -3.320766 3.963281 0.385103
v -3.320766 3.963281 -0.385103
v 3.320766 -2.678252 0.385103
v 3.320766 -2.678252 -0.385103
v 3.320766 3.963281 -0.385103
v 3.320766 3.963281 0.385103
v 1.080116 -4.502840 -1.099353
v -1.080116 -4.502840 -1.099353
v -1.080116 4.662874 -1.099353
v 1.080116 4.662874 -1.099353
v -1.080116 -4.502840 1.099353
v 1.080116 -4.502840 1.099353
v 1.080116 4.662874 1.099353
v -1.080116 4.662874 1.099353
v -1.080116 4.823712 -0.385103
v 1.080116 4.823712 -0.385103
v -1.080116 4.823712 0.385103
v 1.080116 4.823712 0.385103
v 1.080116 -4.663677 -0.385103
v -1.080116 -4.663677 -0.385103
v 1.080116 -4.663677 0.385103
v -1.080116 -4.663677 0.385103
v -2.272053 0.212094 1.099353
v -2.272053 3.221646 1.099353
v 2.272053 3.221646 1.099353
v 2.272053 0.212094 1.099353
v 0.776625 0.212094 1.099353
v -0.776625 3.221646 1.099353
v -0.776625 0.212094 1.099353
v 0.776625 3.221646 1.099353
v -2.186564 0.282123 1.023272
v -2.186564 3.178436 1.023272
v 2.186564 3.178436 1.023272
v 2.186564 0.282123 1.023272
v 0.747404 0.282123 1.023272
v -0.747404 3.178436 1.023272
v -0.747404 0.282123 1.023272
v 0.747404 3.178436 1.023272
v -1.513926 4.657125 -0.222479
v -2.886956 4.129868 -0.222479
v -2.886956 4.129868 0.222479
v -1.513926 4.657125 0.222479
v 2.886956 4.129868 -0.222479
v 1.513926 4.657125 -0.222479
v 1.513926 4.657125 0.222479
v 2.886956 4.129868 0.222479
v 0.659887 4.823712 -0.222479
v -0.659887 4.823712 -0.222479
v -0.659887 4.823712 0.222479
v 0.659887 4.823712 0.222479
v -2.983633 4.381625 -0.222479
v -1.610603 4.908882 -0.222479
v -1.610603 4.908882 0.222479
v -2.983633 4.381625 0.222479
v 1.610603 4.908882 -0.222479
v 2.983633 4.381625 -0.222479
v 2.983633 4.381625 0.222479
v 1.610603 4.908882 0.222479
v -0.659887 5.093393 -0.222479
v 0.659887 5.093393 -0.222479
v 0.659887 5.093393 0.222479
v -0.659887 5.093393 0.222479
v -3.159929 0.711813 1.099353
v -3.159929 2.818432 1.099353
v -3.159929 2.818432 -1.099353
v -3.159929 0.711813 -1.099353
v 3.159929 2.818432 -1.099353
v 3.159929 0.711813 -1.099353
v 3.159929 2.818432 1.099353
v 3.159929 0.711813 1.099353
v 3.320766 2.929185 -0.385103
v 3.320766 0.715340 -0.385103
v 3.320766 2.929185 0.385103
v 3.320766 0.715340 0.385103
v -3.320766 2.929185 0.385103
v -3.320766 0.715340 0.385103
v -3.320766 2.929185 -0.385103
v -3.320766 0.715340 -0.385103
v -1.080116 3.235759 -1.099353
v -1.080116 0.180521 -1.099353
v 1.080116 3.235759 -1.099353
v 1.080116 0.180521 -1.099353
v -2.272053 1.749870 1.099353
v -2.272053 2.753054 1.099353
v 2.272053 2.753054 1.099353
v 2.272053 1.749870 1.099353
v -2.186564 1.762038 1.023272
v -2.186564 2.727476 1.023272
v 2.186564 2.727476 1.023272
v 2.186564 1.762038 1.023272
v 0.747404 2.727476 1.023272
v 0.747404 1.762038 1.023272
v -0.747404 2.727476 1.023272
v -0.747404 1.762038 1.023272
v 3.320766 2.561624 -0.257227
v 3.320766 1.082902 -0.257227
v 3.320766 2.561624 0.257227
v 3.320766 1.082902 0.257227
v 3.548906 2.561624 -0.257227
v 3.548906 1.082902 -0.257227
v 3.548906 2.561624 0.257227
v 3.548906 1.082902 0.257227
v 0.462317 -2.051497 1.099353
v 1.162514 -2.051497 1.099353
v -1.162514 -2.051497 1.099353
v -0.462317 -2.051497 1.099353
v 0.332416 -0.652674 1.099353
v 1.162514 -0.652674 1.099353
v -1.162514 -0.652674 1.099353
v -0.332416 -0.652674 1.099353
v 0.397269 -1.953089 1.215374
v 0.998946 -1.953089 1.215374
v -0.998946 -1.953089 1.215374
v -0.397269 -1.953089 1.215374
v 0.285644 -0.751082 1.215374
v 0.998946 -0.751082 1.215374
v -0.998946 -0.751082 1.215374
v -0.285644 -0.751082 1.215374
v 0.442374 -4.663677 -0.212424
v -0.442374 -4.663677 -0.212424
v 0.442374 -4.663677 0.212424
v -0.442374 -4.663677 0.212424
v 0.360010 -5.090128 -0.212424
v -0.360010 -5.090128 -0.212424
v 0.360010 -5.090128 0.212424
v -0.360010 -5.090128 0.212424
v 0.261169 -4.751019 -0.212424
v -0.261169 -4.751019 -0.212424
v 0.261169 -4.751019 0.212424
v -0.261169 -4.751019 0.212424
v 0.212542 -5.002787 -0.212424
v -0.212542 -5.002787 -0.212424
v 0.212542 -5.002787 0.212424
v -0.212542 -5.002787 0.212424
vn -0.9756 0.0000 -0.2197
vn 0.0000 0.0000 -1.0000
vn 0.9756 0.0000 0.2197
vn 0.0000 0.0000 1.0000
vn 0.6577 -0.7156 0.2352
vn -0.3589 0.9011 0.2433
vn -0.3589 0.9011 -0.2433
vn 0.6577 -0.7156 -0.2352
vn 0.6632 -0.7484 0.0000
vn 0.9756 0.0000 -0.2197
vn 1.0000 0.0000 0.0000
vn -0.9756 0.0000 0.2197
vn -1.0000 0.0000 0.0000
vn -0.6632 -0.7484 0.0000
vn 0.0000 -1.0000 0.0000
vn -0.6577 -0.7156 -0.2352
vn 0.0000 -0.9756 -0.2197
vn 0.3589 0.9011 -0.2433
vn 0.0000 0.9756 -0.2197
vn 0.3589 0.9011 0.2433
vn 0.0000 0.9756 0.2197
vn -0.6577 -0.7156 0.2352
vn 0.0000 -0.9756 0.2197
vn 0.0000 0.7358 0.6772
vn 0.0000 -0.8695 0.4939
vn 0.6648 0.0000 0.7470
vn -0.6648 0.0000 0.7470
vn -0.3585 0.9335 0.0000
vn 0.3585 0.9335 -0.0000
vn 0.0000 1.0000 0.0000
vn -0.9819 -0.1896 0.0000
vn 0.9819 -0.1896 0.0000
vn 0.9819 0.1896 0.0000
vn -0.9819 0.1896 0.0000
vn 0.9335 0.3585 0.0000
vn -0.9335 -0.3585 0.0000
vn 0.9335 -0.3585 0.0000
vn -0.9335 0.3585 0.0000
vn 0.0000 -0.7626 0.6468
vn 0.0000 0.7626 0.6468
vn 0.5786 0.0000 0.8156
vn -0.5786 0.0000 0.8156
usemtl 039BE5
s off
f 87//1 12//1 4//1 75//1
f 91//2 20//2 8//2 77//2
f 83//3 16//3 6//3 79//3
f 24//4 2//4 34//4 38//4
f 31//5 13//5 5//5 22//5
f 27//6 11//6 2//6 24//6
f 19//7 4//7 12//7 25//7
f 17//8 7//8 14//8 29//8
f 29//9 14//9 13//9 31//9
f 77//10 8//10 15//10 81//10
f 81//11 15//11 16//11 83//11
f 74//12 2//12 11//12 85//12
f 85//13 11//13 12//13 87//13
f 9//14 30//14 32//14 10//14
f 29//15 31//15 131//15 129//15
f 3//16 18//16 30//16 9//16
f 18//17 17//17 29//17 30//17
f 8//18 20//18 26//18 15//18
f 20//19 19//19 25//19 26//19
f 16//20 28//20 23//20 6//20
f 28//21 27//21 24//21 23//21
f 10//22 32//22 21//22 1//22
f 32//23 31//23 22//23 21//23
f 1//4 21//4 116//4 115//4
f 23//4 24//4 38//4 40//4
f 75//2 4//2 19//2 89//2
f 89//2 19//2 20//2 91//2
f 37//24 36//24 44//24 45//24
f 33//24 39//24 47//24 41//24
f 35//25 40//25 48//25 43//25
f 79//4 6//4 35//4 95//4
f 6//4 23//4 40//4 35//4
f 73//4 1//4 33//4 93//4
f 22//4 5//4 114//4 113//4
f 37//4 39//4 120//4 117//4
f 93//26 33//26 41//26 97//26
f 40//25 38//25 46//25 48//25
f 39//24 37//24 45//24 47//24
f 38//25 34//25 42//25 46//25
f 95//27 35//27 43//27 99//27
f 25//28 12//28 50//28 49//28
f 12//28 11//28 51//28 50//28
f 11//28 27//28 52//28 51//28
f 27//28 25//28 49//28 52//28
f 15//29 26//29 54//29 53//29
f 26//29 28//29 55//29 54//29
f 28//29 16//29 56//29 55//29
f 16//29 15//29 53//29 56//29
f 26//30 25//30 58//30 57//30
f 25//30 27//30 59//30 58//30
f 27//30 28//30 60//30 59//30
f 28//30 26//30 57//30 60//30
f 36//27 96//27 100//27 44//27
f 96//27 95//27 99//27 100//27
f 34//26 94//26 98//26 42//26
f 94//26 93//26 97//26 98//26
f 2//4 74//4 94//4 34//4
f 74//4 73//4 93//4 94//4
f 5//4 80//4 96//4 36//4
f 80//4 79//4 95//4 96//4
f 18//2 90//2 92//2 17//2
f 90//2 89//2 91//2 92//2
f 3//2 76//2 90//2 18//2
f 76//2 75//2 89//2 90//2
f 10//13 86//13 88//13 9//13
f 86//13 85//13 87//13 88//13
f 1//12 73//12 86//12 10//12
f 73//12 74//12 85//12 86//12
f 14//11 82//11 84//11 13//11
f 83//11 84//11 108//11 107//11
f 7//10 78//10 82//10 14//10
f 78//10 77//10 81//10 82//10
f 13//3 84//3 80//3 5//3
f 84//3 83//3 79//3 80//3
f 17//2 92//2 78//2 7//2
f 92//2 91//2 77//2 78//2
f 9//1 88//1 76//1 3//1
f 88//1 87//1 75//1 76//1
f 81//11 83//11 107//11 105//11
f 82//11 81//11 105//11 106//11
f 84//11 82//11 106//11 108//11
f 5//4 36//4 118//4 114//4
f 21//4 22//4 113//4 116//4
f 33//4 1//4 115//4 119//4
f 39//4 33//4 119//4 120//4
f 36//4 37//4 117//4 118//4
f 132//31 130//31 134//31 136//31
f 31//15 32//15 132//15 131//15
f 30//15 29//15 129//15 130//15
f 32//15 30//15 130//15 132//15
f 134//15 133//15 135//15 136//15
f 132//4 136//4 144//4 140//4
f 129//32 131//32 135//32 133//32
f 135//4 131//4 139//4 143//4
f 138//33 140//33 144//33 142//33
f 138//15 137//15 139//15 140//15
f 130//2 129//2 137//2 138//2
f 136//4 135//4 143//4 144//4
f 129//2 133//2 141//2 137//2
f 134//2 130//2 138//2 142//2
f 131//4 132//4 140//4 139//4
f 133//2 134//2 142//2 141//2
f 142//30 144//30 143//30 141//30
f 141//34 143//34 139//34 137//34
usemtl 8BC34A
f 103//4 46//4 42//4 98//4
f 99//4 43//4 48//4 101//4
f 101//4 48//4 46//4 103//4
f 45//4 102//4 104//4 47//4
f 102//4 101//4 103//4 104//4
f 44//4 100//4 102//4 45//4
f 100//4 99//4 101//4 102//4
f 47//4 104//4 97//4 41//4
f 104//4 103//4 98//4 97//4
usemtl 1A1A1A
f 55//4 56//4 67//4 68//4
f 49//2 50//2 61//2 62//2
f 60//11 57//11 70//11 71//11
f 62//28 61//28 64//28 63//28
f 66//29 65//29 68//29 67//29
f 70//30 69//30 72//30 71//30
f 58//13 59//13 72//13 69//13
f 52//35 49//35 62//35 63//35
f 53//2 54//2 65//2 66//2
f 59//4 60//4 71//4 72//4
f 50//36 51//36 64//36 61//36
f 56//37 53//37 66//37 67//37
f 57//2 58//2 69//2 70//2
f 51//4 52//4 63//4 64//4
f 54//38 55//38 68//38 65//38
f 108//15 106//15 110//15 112//15
f 110//11 109//11 111//11 112//11
f 106//2 105//2 109//2 110//2
f 105//30 107//30 111//30 109//30
f 107//4 108//4 112//4 111//4
f 115//39 116//39 124//39 123//39
f 118//40 117//40 125//40 126//40
f 117//40 120//40 128//40 125//40
f 124//4 121//4 125//4 128//4
f 123//4 124//4 128//4 127//4
f 121//4 122//4 126//4 125//4
f 114//41 118//41 126//41 122//41
f 120//40 119//40 127//40 128//40
f 116//39 113//39 121//39 124//39
f 113//39 114//39 122//39 121//39
f 119//42 115//42 123//42 127//42
